<svg id="Layer_1" data-name="Layer 1" xmlns="http://www.w3.org/2000/svg" viewBox="0 0 400 300"><title>#88_knowledge_twocolour</title><path d="M81.23,167.66h0a107.2,107.2,0,0,1,107.2-107.2H205a107.2,107.2,0,0,1,107.19,107.2v1" fill="none" stroke="#a5a5a5" stroke-linecap="round" stroke-linejoin="round" stroke-width="2" stroke-dasharray="2 10" opacity="0.32"/><path d="M93.1,197.51s-3.68-2.92-7.52-2-.92,3.53-.92,3.53-4.61-1.68-5.23,2.16,13.67,2.91,13.67,2.91Z" fill="#f4a28c"/><path d="M174.37,100.86s-29.53,3.62-33.12,39.92S119.83,199.56,91.57,196v9.5s66.36,10.12,76.19-54Z" fill="#5fe0fd"/><path d="M174.37,100.86s-29.53,3.62-33.12,39.92S119.83,199.56,91.57,196v9.5s66.36,10.12,76.19-54Z" fill="#fff" opacity="0.46"/><path d="M305.39,197.51s3.69-2.92,7.53-2,.92,3.53.92,3.53,4.61-1.68,5.22,2.16-13.67,2.91-13.67,2.91Z" fill="#f4a28c"/><path d="M224.13,100.86s29.52,3.62,33.12,39.92,21.41,58.78,49.68,55.22v9.5s-66.36,10.12-76.2-54Z" fill="#5fe0fd"/><path d="M224.13,100.86s29.52,3.62,33.12,39.92,21.41,58.78,49.68,55.22v9.5s-66.36,10.12-76.2-54Z" fill="#fff" opacity="0.46"/><path d="M191.3,99.75S155.68,96.58,151,120.63s29.12,62.27,29.12,62.27h45.43S297.5,87.46,191.3,99.75Z" fill="#5fe0fd"/><ellipse cx="206.22" cy="267.4" rx="84.34" ry="13.51" fill="#e6e6e6" opacity="0.45"/><circle cx="196.24" cy="34.25" r="25.06" fill="#ffd200" opacity="0.15"/><path d="M192,243.51s2,2.64.69,5.14.58,4.62,2.57,2.88,2.79-9,2.79-9l-4.47-2.61Z" fill="#5fe0fd"/><path d="M211.12,264.87s-2,2.65-.68,5.15-.59,4.62-2.57,2.88-2.8-9-2.8-9l4.47-2.61Z" fill="#5fe0fd"/><path d="M190.28,99.52s-4.5,7.08-.09,9.61,5.82-.36,5.82-.36,3.28,3.88,6.22.87,2.52-9-.47-11.74S190.28,99.52,190.28,99.52Z" fill="#fff"/><path d="M191.3,99.75a34.86,34.86,0,0,1,.39,3.93c.06,1.81.64,4.5,3.5,5,4.4.81,5.57-6.15,5.57-6.15s2.77-6.52-2-7.42C194.47,94.34,190.43,93.76,191.3,99.75Z" fill="#f4a28c"/><path d="M200.48,102.85s.26-2.12,2.1-2S203.7,104.86,200.48,102.85Z" fill="#f4a28c"/><path d="M192.36,101.67s.65-2-1.06-2.71S188.6,102.17,192.36,101.67Z" fill="#f4a28c"/><path d="M191.3,99.75s-7.13-1-3.94-6.27,3.89-1.31,5.4-5.38,2.86-4.85,5.07-3.11.07,5.37,3.41,4.35,5.62-2,6.25.79,0,4.09-2.15,5,1.23,4.67-4.18,6.19S193,97,193,97Z" fill="#24285b"/><path d="M180.14,182.9s-24.62,21.5-12,38.87,23,22.89,23,22.89l4.18-4.94s-29.37-32.18,2.76-45.61l27.5-11.21Z" fill="#24285b"/><path d="M225.57,182.9s26,56-13.9,83.07L207.73,260s31.85-33.89-10-68.81Z" fill="#24285b"/><path d="M213.75,33.06a17.38,17.38,0,1,0-30,12,14,14,0,0,1,3.8,9.71v.6H204.8v-.44a14.1,14.1,0,0,1,4-9.78A17.28,17.28,0,0,0,213.75,33.06Z" fill="#ffd200"/><path d="M191.7,55.4a.59.59,0,0,1-.59-.51l-3.64-22a.61.61,0,0,1,1.2-.2l3.63,22a.6.6,0,0,1-.5.69Z" fill="#fff"/><path d="M200.77,55.4h-.1a.6.6,0,0,1-.5-.69l3.63-22a.61.61,0,1,1,1.2.2l-3.64,22A.59.59,0,0,1,200.77,55.4Z" fill="#fff"/><rect x="186.52" y="52.69" width="19.7" height="15.55" fill="#24285b"/><path d="M198.15,37.36A2.9,2.9,0,0,1,196,36c-.29-.37-.57-.55-.82-.52-.59.05-1.25,1-1.49,1.45a.6.6,0,0,1-1.07-.55c.1-.2,1-2,2.44-2.11a2.14,2.14,0,0,1,1.9,1c.33.44.83,1,1.32.9s1.05-.83,1.18-1.1a.6.6,0,0,1,.81-.28.59.59,0,0,1,.28.8,3.11,3.11,0,0,1-2.14,1.78Z" fill="#fff"/><ellipse cx="202.46" cy="23.51" rx="4.22" ry="5.4" transform="translate(100.34 199.91) rotate(-66.56)" fill="#fff" opacity="0.21"/><rect x="191.18" y="68.24" width="10.38" height="5.2" fill="#24285b"/><rect x="191.18" y="68.24" width="10.38" height="5.2" fill="#fff" opacity="0.17"/><circle cx="81.23" cy="173.95" r="11.61" fill="#ffd200"/><circle cx="312.23" cy="168.68" r="11.61" fill="#ffd200"/><circle cx="118.33" cy="90.9" r="16.02" fill="#24285b"/><circle cx="275.92" cy="89.46" r="16.02" fill="#24285b"/><rect x="215.83" y="124.29" width="18.08" height="6.25" fill="#fff"/><path d="M248,137.92s-26.29,44.72-77.38,32.88l9.53,12.1h45.43S244.13,157.07,248,137.92Z" opacity="0.08"/></svg>